<svg width="50px" height="50px" version="1.1" xmlns="http://www.w3.org/2000/svg" viewBox="0 0 512 512" xmlns:xlink="http://www.w3.org/1999/xlink" enable-background="new 0 0 512 512">
  <g>
    <path fill="#ff8261" d="m369.9,375.9h-104v-88.6h149.8c46.8,0 85.3-37.5 85.3-84.4 0-46.9-37.5-84.4-84.3-84.4-4.2,0-8.3,0-12.5,1-1-59.4-49.9-106.3-108.2-106.3-22.9,0-44.7,7.3-62.4,19.8-15.6-13.7-36.4-22-57.2-22-33.3,0-64.5,19.8-78,50-51,12.6-87.4,58.4-87.4,111.6 0,63.6 51,114.7 114.4,114.7h119.6v88.6h-104v52.1h-119.6v20.9h119.6v52.1h228.9v-52.1h119.6v-20.9h-119.6v-52.1zm-338.1-203.3c-1.06581e-14-44.8 32.3-83.4 75.9-91.7l7.3-7.3c9.4-25 33.3-41.7 60.3-41.7 34.3,0 57.2,30.2 57.2,30.2s24.7-27.1 63.6-27.1c47.9,0 87.4,39.6 87.4,87.6 0,13.5-3.1,25-3.1,25s17.9-8.3 35.4-8.3c35.4,0 63.5,28.1 63.5,63.6s-28.1,63.6-63.5,63.6h-290.4c-52-0.1-93.6-41.8-93.6-93.9zm317.3,307.5h-187.3v-83.4h187.3v83.4z"/>
  </g>
</svg>
