<?xml version='1.0' encoding='utf-8'?>
<!DOCTYPE svg PUBLIC '-//W3C//DTD SVG 1.1//EN' 'http://www.w3.org/Graphics/SVG/1.1/DTD/svg11.dtd'>
<svg width="50px" height="50px" version="1.1" xmlns="http://www.w3.org/2000/svg" viewBox="0 0 512 512" xmlns:xlink="http://www.w3.org/1999/xlink" enable-background="new 0 0 512 512">
  <g>
    <path fill="#ff8261" d="m393.4,180.5h-273.9c4.2-71.6 63.8-128.6 136.5-128.6 52.6,0 101.2,30.7 123.7,78.3 4.8,10.2 17,14.5 27.2,9.7 10.2-4.8 14.5-17 9.7-27.2-29.3-61.8-91.4-101.7-160.6-101.7-147.4,0-180.1,138.4-177.6,181.9 0,0-31.2,16.1-31.2,58.9v177.8c0,39.3 32,71.3 71.3,71.3h274.8c39.3,0 71.3-32 71.3-71.3v-177.8c0.2-39.3-31.8-71.3-71.2-71.3zm30.5,249.2c0,16.8-13.7,30.5-30.5,30.5h-274.8c-16.8,0-30.5-13.7-30.5-30.5v-177.9c0-16.8 13.7-30.5 30.5-30.5h274.8c16.8,0 30.5,13.7 30.5,30.5v177.9z"/>
  </g>
</svg>
